<svg xmlns="http://www.w3.org/2000/svg" width="1280" height="200" viewBox="0 0 1280 200" role="img" aria-labelledby="title desc">
  <title id="title">Canic</title>
  <desc id="desc">Canic. run and manage applications across a fleet of canisters. A navy and cyan README header with the rounded-square navigation icon.</desc>
  <rect width="1280" height="200" rx="14" fill="#0B2244"/>
  <path d="M1010 0V52H1090V110H1170V166H1280M1130 0V35H1210V94H1280M963 200V147H1043V89H1123V0" fill="none" stroke="#294768" stroke-width="1.5"/>
  <g fill="#5CD7EA">
    <circle cx="1090" cy="52" r="4"/><circle cx="1170" cy="110" r="4"/>
    <circle cx="1043" cy="147" r="4"/><circle cx="1210" cy="35" r="4"/>
  </g>
  <rect x="40.5" y="42.5" width="115" height="115" rx="24" fill="#102D52" stroke="#294768"/>
  <g transform="translate(50 52)" fill="none" stroke="#5CD7EA" stroke-width="3.5" stroke-linecap="round" stroke-linejoin="round">
    <path transform="translate(6 6) scale(3.5)" stroke-width="1" d="M14.7 6.3a1 1 0 0 0 0 1.4l1.6 1.6a1 1 0 0 0 1.4 0l3.77-3.77a6 6 0 0 1-7.94 7.94l-6.91 6.91a2.12 2.12 0 0 1-3-3l6.91-6.91a6 6 0 0 1 7.94-7.94l-3.77 3.77Z"/>
  </g>
  <g font-family="Inter, Arial, sans-serif">
    <text x="190" y="60" fill="#5CD7EA" font-size="13" font-weight="700" letter-spacing="2.5">INTERNET COMPUTER</text>
    <text x="188" y="117" fill="#FFFFFF" font-size="46" font-weight="700">Canic</text>
    <text x="190" y="153" fill="#B5C8DD" font-size="18">run and manage applications across a fleet of canisters</text>
  </g>
</svg>
