<svg xmlns="http://www.w3.org/2000/svg" width="1280" height="200" viewBox="0 0 1280 200" role="img" aria-labelledby="title desc">
  <title id="title">IcyDB</title>
  <desc id="desc">A IcyDB README header using the shared navy, cyan and white style.</desc>
  <rect width="1280" height="200" rx="14" fill="#0B2244"/>
  <path d="M1010 0V52H1090V110H1170V166H1280M1130 0V35H1210V94H1280M963 200V147H1043V89H1123V0" fill="none" stroke="#294768" stroke-width="1.5"/>
  <g fill="#5CD7EA">
    <circle cx="1090" cy="52" r="4"/><circle cx="1170" cy="110" r="4"/>
    <circle cx="1043" cy="147" r="4"/><circle cx="1210" cy="35" r="4"/>
  </g>
  <rect x="40" y="42" width="116" height="116" rx="24" fill="#102D52" stroke="#294768"/>
  <g transform="translate(66 60) scale(.23)">
    <g fill="#5CD7EA">
      <path d="M5 94C35 135 245 135 275 94V146C275 198 5 198 5 146Z"/>
      <path d="M5 170C35 211 245 211 275 170V222C275 274 5 274 5 222Z"/>
      <path d="M5 246C35 287 245 287 275 246V278C275 330 5 330 5 278Z"/>
      <path d="M98 92C46 87 5 71 5 49C5 15 103 0 190 11Z"/>
    </g>
    <path fill="#FFFFFF" d="M123 95L212 16C251 24 275 36 275 49C275 78 193 96 123 95Z"/>
  </g>
  <g font-family="Inter, Arial, sans-serif">
    <text x="190" y="60" fill="#5CD7EA" font-size="13" font-weight="700" letter-spacing="2.5">INTERNET COMPUTER</text>
    <text x="188" y="117" fill="#FFFFFF" font-size="46" font-weight="700">IcyDB</text>
    <text x="190" y="153" fill="#B5C8DD" font-size="18">Developer tools</text>
  </g>
</svg>
